<svg width="14" height="15" viewBox="0 0 14 15" fill="none" xmlns="http://www.w3.org/2000/svg">
<path d="M3.90211 7.11848V7.1107M10.2155 7.11848V7.1107M3.90211 4.77506V3.99651C3.90211 3.17057 4.23469 2.37847 4.82668 1.79445C5.41867 1.21043 6.22156 0.882324 7.05879 0.882324C7.89602 0.882324 8.69892 1.21043 9.29088 1.79445C9.88291 2.37847 10.2155 3.17057 10.2155 3.99651V4.77506M3.90211 4.77506H2.98689C2.16601 4.77506 1.48217 5.39581 1.414 6.20284L0.887885 12.4312C0.811202 13.339 1.53738 14.1176 2.46077 14.1176H11.6568C12.5802 14.1176 13.3064 13.339 13.2297 12.4312L12.7036 6.20284C12.6354 5.39581 11.9516 4.77506 11.1307 4.77506H10.2155M3.90211 4.77506H10.2155" stroke="black" stroke-linecap="round" stroke-linejoin="round"/>
</svg>
